<svg width="200" height="200" viewBox="0 0 200 200" fill="none" xmlns="http://www.w3.org/2000/svg">
<rect width="200" height="200" fill="white"/>
<path fill-rule="evenodd" clip-rule="evenodd" d="M32.3104 133.463C33.6851 119.785 37.7629 98.0919 49.654 77.2206C61.7326 56.0202 78.2945 41.83 89.0861 34.1332C95.768 29.3674 104.406 29.2811 111.125 33.9928C121.879 41.5344 138.326 55.566 150.478 77.2206C162.597 98.8169 166.499 120.548 167.712 134.002C168.473 142.452 164.053 150.236 156.447 153.726C144.616 159.154 124.671 166.143 100.461 166.101C76.4555 166.061 56.2432 159.241 44.0623 153.886C36.0807 150.377 31.4262 142.26 32.3104 133.463ZM100 140.023C118.533 140.023 133.556 125 133.556 106.468C133.556 87.9352 118.533 72.9117 100 72.9117C81.4677 72.9117 66.4442 87.9352 66.4442 106.468C66.4442 125 81.4677 140.023 100 140.023Z" fill="#272727"/>
</svg>
